<svg width="211" height="49" viewBox="0 0 211 49" fill="none" xmlns="http://www.w3.org/2000/svg">
<g filter="url(#filter0_d_1_90)">
<path d="M35.1224 18.2104C33.9867 19.3456 33.4191 20.9246 33.5741 22.5178L33.5474 22.4913C33.7067 24.3661 33.026 26.2154 31.6868 27.5458C30.3476 28.8762 28.4862 29.5525 26.599 29.3942L26.6257 29.4207C24.3407 29.2094 22.1678 30.4442 21.1926 32.5079C20.2175 34.5717 20.6496 37.0213 22.273 38.6326C23.8965 40.2439 26.3626 40.671 28.439 39.7004C30.5155 38.7298 31.7564 36.5699 31.5417 34.3001L31.5698 34.3266C31.4105 32.4518 32.0912 30.6025 33.4304 29.2721C34.7696 27.9417 36.631 27.2654 38.5182 27.4236L38.4901 27.3972C41.0013 27.6215 43.338 26.1004 44.1334 23.7234C44.9288 21.3464 43.9739 18.7382 41.8273 17.4242C39.6807 16.1102 36.9063 16.4358 35.1269 18.2104H35.1224Z" fill="#5454D4" stroke="black"/>
<g filter="url(#filter1_d_1_90)">
<path d="M24.2025 25.953L24.1744 25.9265C25.779 26.0872 27.3715 25.5234 28.5124 24.3909C29.6532 23.2584 30.2219 21.6767 30.0614 20.0824L30.0895 20.1089C29.9302 18.2341 30.611 16.3848 31.9501 15.0544C33.2893 13.724 35.1508 13.0477 37.0379 13.206L37.0098 13.1795C39.2949 13.3927 41.4692 12.1593 42.4458 10.0958C43.4224 8.03236 42.9916 5.58207 41.3687 3.96974C39.7457 2.35741 37.2793 1.92938 35.2022 2.8996C33.1252 3.86982 31.8837 6.02989 32.0983 8.30007L32.0716 8.27213C32.2315 10.1471 31.5509 11.9967 30.2116 13.3272C28.8723 14.6578 27.0105 15.3339 25.1232 15.1751L25.1499 15.203C23.5452 15.0424 21.9527 15.6061 20.8118 16.7387C19.671 17.8712 19.1023 19.4528 19.2628 21.0471L19.2362 21.0207C19.395 22.8954 18.7141 24.7443 17.375 26.0746C16.0359 27.4049 14.1748 28.0813 12.2878 27.9236L12.3144 27.9501C10.0293 27.7369 7.855 28.9703 6.87839 31.0337C5.90178 33.0972 6.33263 35.5475 7.95557 37.1598C9.57852 38.7721 12.0449 39.2002 14.122 38.23C16.199 37.2597 17.4406 35.0997 17.226 32.8295L17.2541 32.856C17.0948 30.9811 17.7755 29.1319 19.1147 27.8014C20.4539 26.471 22.3153 25.7948 24.2025 25.953Z" fill="#FF7143"/>
<path d="M24.2025 25.953L24.1744 25.9265C25.779 26.0872 27.3715 25.5234 28.5124 24.3909C29.6532 23.2584 30.2219 21.6767 30.0614 20.0824L30.0895 20.1089C29.9302 18.2341 30.611 16.3848 31.9501 15.0544C33.2893 13.724 35.1508 13.0477 37.0379 13.206L37.0098 13.1795C39.2949 13.3927 41.4692 12.1593 42.4458 10.0958C43.4224 8.03236 42.9916 5.58207 41.3687 3.96974C39.7457 2.35741 37.2793 1.92938 35.2022 2.8996C33.1252 3.86982 31.8837 6.02989 32.0983 8.30007L32.0716 8.27213C32.2315 10.1471 31.5509 11.9967 30.2116 13.3272C28.8723 14.6578 27.0105 15.3339 25.1232 15.1751L25.1499 15.203C23.5452 15.0424 21.9527 15.6061 20.8118 16.7387C19.671 17.8712 19.1023 19.4528 19.2628 21.0471L19.2362 21.0207C19.395 22.8954 18.7141 24.7443 17.375 26.0746C16.0359 27.4049 14.1748 28.0813 12.2878 27.9236L12.3144 27.9501C10.0293 27.7369 7.855 28.9703 6.87839 31.0337C5.90178 33.0972 6.33263 35.5475 7.95557 37.1598C9.57852 38.7721 12.0449 39.2002 14.122 38.23C16.199 37.2597 17.4406 35.0997 17.226 32.8295L17.2541 32.856C17.0948 30.9811 17.7755 29.1319 19.1147 27.8014C20.4539 26.471 22.3153 25.7948 24.2025 25.953Z" stroke="black"/>
</g>
<path d="M14.2817 23.0016C15.4177 21.8665 15.9848 20.2873 15.8286 18.6942L15.8567 18.7207C15.6973 16.8453 16.3784 14.9955 17.7183 13.665C19.0581 12.3344 20.9204 11.6586 22.8081 11.8178L22.78 11.7913C25.0643 12.0039 27.2375 10.7706 28.2135 8.7078C29.1896 6.64499 28.7587 4.19566 27.1364 2.58393C25.514 0.972201 23.0486 0.544196 20.9722 1.51382C18.8958 2.48345 17.6544 4.64248 17.8684 6.91187L17.8418 6.8854C18.0011 8.76024 17.3203 10.6095 15.9812 11.9399C14.642 13.2703 12.7805 13.9466 10.8934 13.7883L10.92 13.8148C8.40888 13.5911 6.07266 15.1127 5.27773 17.4896C4.4828 19.8666 5.43797 22.4746 7.58459 23.7882C9.73121 25.1019 12.5054 24.7762 14.2847 23.0016H14.2817Z" fill="#5454D4" stroke="black"/>
<path d="M60.1361 8.33398H64.5325V29.5884H60.1361V8.33398Z" fill="#19191B" stroke="black"/>
<path fill-rule="evenodd" clip-rule="evenodd" d="M71.7954 15.1596C68.8941 16.3636 67.0098 19.1867 67.0223 22.3104C67.0071 24.3586 67.8215 26.3269 69.2823 27.7724C70.7432 29.2178 72.7277 30.019 74.7893 29.9957C77.9336 29.9957 80.7677 28.1123 81.968 25.2252C83.1683 22.3381 82.4981 19.0168 80.2703 16.8124C78.0425 14.6081 74.6967 13.9555 71.7954 15.1596ZM74.7269 19.0536C76.5768 19.0196 78.1087 20.4729 78.1599 22.3103C78.2098 23.2212 77.874 24.1114 77.2338 24.7653C76.5936 25.4192 75.7072 25.7773 74.7893 25.753C72.9391 25.7531 71.4343 24.2721 71.4172 22.434C71.4001 20.596 72.877 19.0875 74.7269 19.0536Z" fill="#19191B"/>
<path d="M67.0223 22.3104L67.5224 22.3141L67.5223 22.3084L67.0223 22.3104ZM71.7954 15.1596L71.9871 15.6214L71.7954 15.1596ZM74.7893 29.9957L74.7893 29.4957L74.7837 29.4957L74.7893 29.9957ZM80.2703 16.8124L79.9186 17.1678V17.1678L80.2703 16.8124ZM78.1599 22.3103L77.6599 22.3243L77.6606 22.3377L78.1599 22.3103ZM74.7269 19.0536L74.736 19.5535L74.7269 19.0536ZM77.2338 24.7653L77.5911 25.1151L77.2338 24.7653ZM74.7893 25.753L74.8026 25.253L74.7893 25.253L74.7893 25.753ZM71.4172 22.434L70.9172 22.4387L71.4172 22.434ZM67.5223 22.3084C67.5106 19.389 69.2717 16.7483 71.9871 15.6214L71.6038 14.6978C68.5165 15.979 66.5089 18.9844 66.5223 22.3124L67.5223 22.3084ZM69.634 27.417C68.2687 26.066 67.5081 24.227 67.5223 22.3141L66.5223 22.3067C66.5061 24.4902 67.3744 26.5879 68.9307 28.1278L69.634 27.417ZM74.7837 29.4957C72.8552 29.5176 70.9995 28.7681 69.634 27.417L68.9307 28.1278C70.4868 29.6676 72.6002 30.5205 74.795 30.4957L74.7837 29.4957ZM81.5063 25.0332C80.3841 27.7325 77.7331 29.4957 74.7893 29.4957L74.7893 30.4957C78.1341 30.4957 81.1512 28.4922 82.4297 25.4171L81.5063 25.0332ZM79.9186 17.1678C82.0023 19.2296 82.6283 22.3345 81.5063 25.0332L82.4297 25.4171C83.7084 22.3416 82.994 18.804 80.622 16.457L79.9186 17.1678ZM71.9871 15.6214C74.7029 14.4943 77.8344 15.1056 79.9186 17.1678L80.622 16.457C78.2506 14.1106 74.6905 13.4168 71.6038 14.6978L71.9871 15.6214ZM78.6597 22.2964C78.6008 20.1818 76.8388 18.5147 74.7177 18.5536L74.736 19.5535C76.3148 19.5245 77.6166 20.7641 77.6601 22.3243L78.6597 22.2964ZM77.5911 25.1151C78.3291 24.3613 78.7168 23.3344 78.6591 22.283L77.6606 22.3377C77.7029 23.108 77.419 23.8614 76.8765 24.4155L77.5911 25.1151ZM74.776 26.2528C75.8324 26.2808 76.8532 25.8687 77.5911 25.1151L76.8765 24.4155C76.3339 24.9697 75.582 25.2738 74.8026 25.2532L74.776 26.2528ZM70.9172 22.4387C70.9369 24.5541 72.6678 26.2531 74.7893 26.253L74.7893 25.253C73.2103 25.2531 71.9317 23.99 71.9172 22.4293L70.9172 22.4387ZM74.7177 18.5536C72.5965 18.5925 70.8975 20.3232 70.9172 22.4387L71.9172 22.4293C71.9026 20.8687 73.1574 19.5824 74.736 19.5535L74.7177 18.5536Z" fill="black"/>
<path fill-rule="evenodd" clip-rule="evenodd" d="M100.078 28.8545V15.031L95.7988 15.0281V16.5133C94.7549 15.2443 93.1672 14.5421 91.5194 14.6207C87.4997 14.7466 84.3069 18.0203 84.3069 22.0156C84.3069 26.0109 87.4997 29.2845 91.5194 29.4104C93.1672 29.489 94.7549 28.7868 95.7988 27.5178V28.8486C95.8724 29.7267 95.5403 30.5905 94.8963 31.1963C94.2522 31.8021 93.366 32.0843 92.4875 31.9633C91.0978 32.1043 89.7661 31.3733 89.1465 30.1295L85.3955 32.2839C86.863 34.6593 89.5432 36.0214 92.3409 35.8133C96.2385 35.8133 100.078 33.7457 100.078 28.8545ZM93.7112 18.6533C95.0338 19.2458 95.8608 20.5777 95.8003 22.0177C95.8277 22.9476 95.458 23.8456 94.7826 24.4899C94.1073 25.1342 93.1892 25.4649 92.2551 25.4001C90.8043 25.4018 89.4982 24.527 88.9557 23.1903C88.4133 21.8535 88.7436 20.3234 89.79 19.325C90.8364 18.3267 92.3887 18.0608 93.7112 18.6533Z" fill="#19191B"/>
<path d="M100.078 15.031H100.578V14.5313L100.079 14.531L100.078 15.031ZM95.7988 15.0281L95.7992 14.5281L95.2988 14.5277V15.0281H95.7988ZM95.7988 16.5133L95.4127 16.831L96.2988 17.9082V16.5133H95.7988ZM91.5194 14.6207L91.535 15.1205L91.5432 15.1201L91.5194 14.6207ZM91.5194 29.4104L91.5432 28.9109L91.535 28.9107L91.5194 29.4104ZM95.7988 27.5178H96.2988V26.1229L95.4127 27.2001L95.7988 27.5178ZM95.7988 28.8486H95.2988V28.8696L95.3006 28.8904L95.7988 28.8486ZM94.8963 31.1963L94.5537 30.8321L94.8963 31.1963ZM92.4875 31.9633L92.5556 31.468L92.4965 31.4599L92.437 31.4659L92.4875 31.9633ZM89.1465 30.1295L89.594 29.9066L89.3575 29.4317L88.8975 29.696L89.1465 30.1295ZM85.3955 32.2839L85.1464 31.8504L84.6987 32.1075L84.9701 32.5467L85.3955 32.2839ZM92.3409 35.8133V35.3133H92.3223L92.3038 35.3147L92.3409 35.8133ZM95.8003 22.0177L95.3008 21.9968L95.3 22.0146L95.3005 22.0324L95.8003 22.0177ZM93.7112 18.6533L93.9157 18.197L93.7112 18.6533ZM92.2551 25.4001L92.2897 24.9013L92.2721 24.9001L92.2545 24.9001L92.2551 25.4001ZM89.79 19.325L89.4448 18.9633L89.79 19.325ZM99.5783 15.031V28.8545H100.578V15.031H99.5783ZM95.7985 15.5281L100.078 15.531L100.079 14.531L95.7992 14.5281L95.7985 15.5281ZM96.2988 16.5133V15.0281H95.2988V16.5133H96.2988ZM91.5432 15.1201C93.034 15.0491 94.4695 15.6845 95.4127 16.831L96.185 16.1957C95.0403 14.8042 93.3003 14.0352 91.4955 14.1213L91.5432 15.1201ZM84.8069 22.0156C84.8069 18.2932 87.7824 15.238 91.535 15.1205L91.5037 14.1209C87.2171 14.2552 83.8069 17.7473 83.8069 22.0156H84.8069ZM91.535 28.9107C87.7824 28.7931 84.8069 25.7379 84.8069 22.0156H83.8069C83.8069 26.2838 87.2171 29.7759 91.5037 29.9102L91.535 28.9107ZM95.4127 27.2001C94.4695 28.3467 93.034 28.9821 91.5432 28.911L91.4955 29.9098C93.3003 29.9959 95.0403 29.2269 96.185 27.8354L95.4127 27.2001ZM96.2988 28.8486V27.5178H95.2988V28.8486H96.2988ZM95.2389 31.5605C95.9936 30.8506 96.3834 29.8376 96.2971 28.8069L95.3006 28.8904C95.3614 29.6159 95.0871 30.3303 94.5537 30.8321L95.2389 31.5605ZM92.4193 32.4587C93.447 32.6002 94.4844 32.2702 95.2389 31.5605L94.5537 30.8321C94.0201 31.334 93.285 31.5684 92.5556 31.468L92.4193 32.4587ZM88.6989 30.3525C89.4119 31.7837 90.9427 32.6225 92.5379 32.4608L92.437 31.4659C91.2528 31.586 90.1202 30.9629 89.594 29.9066L88.6989 30.3525ZM85.6445 32.7175L89.3955 30.5631L88.8975 29.696L85.1464 31.8504L85.6445 32.7175ZM92.3038 35.3147C89.6911 35.509 87.1897 34.2369 85.8208 32.0211L84.9701 32.5467C86.5363 35.0818 89.3954 36.5337 92.378 36.312L92.3038 35.3147ZM99.5783 28.8545C99.5783 31.1527 98.6842 32.7443 97.3637 33.7738C96.0263 34.8166 94.2096 35.3133 92.3409 35.3133V36.3133C94.3698 36.3133 96.4218 35.7763 97.9786 34.5624C99.5525 33.3354 100.578 31.4475 100.578 28.8545H99.5783ZM96.2999 22.0387C96.369 20.3927 95.4236 18.8726 93.9157 18.197L93.5068 19.1096C94.6439 19.619 95.3526 20.7627 95.3008 21.9968L96.2999 22.0387ZM95.1278 24.8517C95.9054 24.1098 96.3316 23.0752 96.3001 22.003L95.3005 22.0324C95.3237 22.82 95.0107 23.5813 94.4375 24.1281L95.1278 24.8517ZM92.2205 25.8989C93.2943 25.9733 94.3504 25.5934 95.1278 24.8517L94.4375 24.1281C93.8642 24.6751 93.084 24.9564 92.2897 24.9013L92.2205 25.8989ZM88.4924 23.3783C89.1121 24.9053 90.6026 25.9021 92.2557 25.9001L92.2545 24.9001C91.0059 24.9016 89.8843 24.1488 89.4191 23.0023L88.4924 23.3783ZM89.4448 18.9633C88.2505 20.1028 87.8726 21.8507 88.4924 23.3783L89.4191 23.0023C88.954 21.8563 89.2367 20.544 90.1351 19.6868L89.4448 18.9633ZM93.9157 18.197C92.4082 17.5217 90.6386 17.8243 89.4448 18.9633L90.1351 19.6868C91.0342 18.8291 92.3692 18.5999 93.5068 19.1096L93.9157 18.197Z" fill="black"/>
<path fill-rule="evenodd" clip-rule="evenodd" d="M107.341 15.1596C104.44 16.3636 102.556 19.1867 102.568 22.3104C102.553 24.3586 103.367 26.3269 104.828 27.7724C106.289 29.2178 108.273 30.019 110.335 29.9957C113.479 29.9957 116.313 28.1123 117.514 25.2252C118.714 22.3381 118.044 19.0168 115.816 16.8124C113.588 14.6081 110.243 13.9555 107.341 15.1596ZM110.273 19.0536C112.123 19.0196 113.654 20.4729 113.706 22.3103C113.756 23.2212 113.42 24.1114 112.78 24.7653C112.139 25.4192 111.253 25.7773 110.335 25.753C108.485 25.7531 106.98 24.2721 106.963 22.434C106.946 20.596 108.423 19.0875 110.273 19.0536Z" fill="#19191B"/>
<path d="M102.568 22.3104L103.068 22.3141L103.068 22.3084L102.568 22.3104ZM107.341 15.1596L107.533 15.6214L107.341 15.1596ZM110.335 29.9957L110.335 29.4957L110.329 29.4957L110.335 29.9957ZM115.816 16.8124L115.464 17.1678V17.1678L115.816 16.8124ZM113.706 22.3103L113.206 22.3243L113.206 22.3377L113.706 22.3103ZM112.78 24.7653L113.137 25.1151L112.78 24.7653ZM110.335 25.753L110.348 25.253L110.335 25.253L110.335 25.753ZM106.963 22.434L106.463 22.4387L106.963 22.434ZM103.068 22.3084C103.056 19.389 104.818 16.7483 107.533 15.6214L107.15 14.6978C104.062 15.979 102.055 18.9844 102.068 22.3124L103.068 22.3084ZM105.18 27.417C103.814 26.066 103.054 24.227 103.068 22.3141L102.068 22.3067C102.052 24.4902 102.92 26.5879 104.476 28.1278L105.18 27.417ZM110.329 29.4957C108.401 29.5176 106.545 28.7681 105.18 27.417L104.476 28.1278C106.033 29.6676 108.146 30.5205 110.341 30.4957L110.329 29.4957ZM117.052 25.0332C115.93 27.7325 113.279 29.4957 110.335 29.4957L110.335 30.4957C113.68 30.4957 116.697 28.4922 117.975 25.4171L117.052 25.0332ZM115.464 17.1678C117.548 19.2296 118.174 22.3345 117.052 25.0332L117.975 25.4171C119.254 22.3416 118.54 18.804 116.168 16.457L115.464 17.1678ZM107.533 15.6214C110.249 14.4943 113.38 15.1056 115.464 17.1678L116.168 16.457C113.796 14.1106 110.236 13.4168 107.15 14.6978L107.533 15.6214ZM114.205 22.2964C114.147 20.1818 112.385 18.5147 110.263 18.5536L110.282 19.5535C111.861 19.5245 113.162 20.7641 113.206 22.3243L114.205 22.2964ZM113.137 25.1151C113.875 24.3613 114.263 23.3344 114.205 22.283L113.206 22.3377C113.249 23.108 112.965 23.8614 112.422 24.4155L113.137 25.1151ZM110.322 26.2528C111.378 26.2808 112.399 25.8687 113.137 25.1151L112.422 24.4155C111.88 24.9697 111.128 25.2738 110.348 25.2532L110.322 26.2528ZM106.463 22.4387C106.483 24.5541 108.214 26.2531 110.335 26.253L110.335 25.253C108.756 25.2531 107.477 23.99 107.463 22.4293L106.463 22.4387ZM110.263 18.5536C108.142 18.5925 106.443 20.3232 106.463 22.4387L107.463 22.4293C107.448 20.8687 108.703 19.5824 110.282 19.5535L110.263 18.5536Z" fill="black"/>
<path fill-rule="evenodd" clip-rule="evenodd" d="M121.781 8.70847C120.795 9.11409 120.152 10.0696 120.152 11.1296C120.167 12.5709 121.339 13.7358 122.79 13.7502C123.857 13.7502 124.819 13.1117 125.227 12.1324C125.635 11.1532 125.41 10.026 124.655 9.27654C123.901 8.52706 122.766 8.30285 121.781 8.70847ZM124.994 15.031H120.596L120.59 29.5898H124.994V15.031Z" fill="#19191B"/>
<path d="M120.152 11.1296H119.652L119.652 11.1346L120.152 11.1296ZM121.781 8.70847L121.971 9.17085L121.781 8.70847ZM122.79 13.7502L122.785 14.2502H122.79V13.7502ZM125.227 12.1324L125.689 12.3248V12.3248L125.227 12.1324ZM124.655 9.27654L125.008 8.92183V8.92183L124.655 9.27654ZM120.596 15.031V14.531H120.097L120.096 15.0308L120.596 15.031ZM124.994 15.031H125.494V14.531H124.994V15.031ZM120.59 29.5898L120.09 29.5896L120.09 30.0898H120.59V29.5898ZM124.994 29.5898V30.0898H125.494V29.5898H124.994ZM120.652 11.1296C120.652 10.2738 121.171 9.49992 121.971 9.17085L121.59 8.24609C120.419 8.72825 119.652 9.86549 119.652 11.1296H120.652ZM122.795 13.2502C121.613 13.2385 120.664 12.2906 120.652 11.1246L119.652 11.1346C119.669 12.8512 121.065 14.2331 122.785 14.2501L122.795 13.2502ZM124.766 11.94C124.436 12.7316 123.657 13.2502 122.79 13.2502V14.2502C124.057 14.2502 125.202 13.4917 125.689 12.3248L124.766 11.94ZM124.303 9.63125C124.914 10.2379 125.095 11.1489 124.766 11.94L125.689 12.3248C126.175 11.1574 125.906 9.81412 125.008 8.92183L124.303 9.63125ZM121.971 9.17085C122.771 8.84157 123.692 9.02401 124.303 9.63125L125.008 8.92183C124.11 8.0301 122.762 7.76413 121.59 8.24609L121.971 9.17085ZM120.596 15.531H124.994V14.531H120.596V15.531ZM121.09 29.59L121.096 15.0312L120.096 15.0308L120.09 29.5896L121.09 29.59ZM124.994 29.0898H120.59V30.0898H124.994V29.0898ZM124.494 15.031V29.5898H125.494V15.031H124.494Z" fill="black"/>
<path fill-rule="evenodd" clip-rule="evenodd" d="M142.084 27.6C143.398 26.1575 144.08 24.2537 143.977 22.3104C144.081 20.3667 143.399 18.4623 142.085 17.0193C140.77 15.5764 138.93 14.7141 136.973 14.6236C135.323 14.5342 133.72 15.1859 132.607 16.3986V15.031H128.211V35.4118H132.607V28.2192C133.72 29.4328 135.323 30.0851 136.973 29.9957C138.929 29.9048 140.769 29.0426 142.084 27.6ZM136.036 18.9329C137.951 18.901 139.533 20.4087 139.581 22.3103C139.647 23.2554 139.304 24.1836 138.639 24.8619C137.973 25.5401 137.047 25.9039 136.095 25.8618C134.18 25.862 132.623 24.3285 132.607 22.4263C132.591 20.5241 134.122 18.9647 136.036 18.9329Z" fill="#19191B"/>
<path d="M143.977 22.3104L143.478 22.2838L143.477 22.3103L143.478 22.3367L143.977 22.3104ZM136.973 14.6236L136.946 15.1229L136.95 15.1231L136.973 14.6236ZM132.607 16.3986H132.107V17.6828L132.976 16.7367L132.607 16.3986ZM132.607 15.031H133.107V14.531H132.607V15.031ZM128.211 15.031V14.531H127.711V15.031H128.211ZM128.211 35.4118H127.711V35.9118H128.211V35.4118ZM132.607 35.4118V35.9118H133.107V35.4118H132.607ZM132.607 28.2192L132.976 27.8813L132.107 26.9339V28.2192H132.607ZM136.973 29.9957L136.949 29.4962L136.946 29.4964L136.973 29.9957ZM139.581 22.3103L139.081 22.3229L139.081 22.3341L139.082 22.3453L139.581 22.3103ZM136.036 18.9329L136.028 18.4329L136.036 18.9329ZM138.639 24.8619L138.282 24.5116L138.639 24.8619ZM136.095 25.8618L136.117 25.3623L136.106 25.3618L136.095 25.3618L136.095 25.8618ZM132.607 22.4263L132.107 22.4305L132.607 22.4263ZM143.478 22.3367C143.573 24.1461 142.939 25.9192 141.714 27.2632L142.453 27.9368C143.858 26.3958 144.586 24.3613 144.477 22.284L143.478 22.3367ZM141.715 17.3561C142.94 18.7005 143.574 20.4741 143.478 22.2838L144.477 22.3369C144.587 20.2592 143.859 18.2241 142.454 16.6826L141.715 17.3561ZM136.95 15.1231C138.775 15.2075 140.49 16.0116 141.715 17.3561L142.454 16.6826C141.05 15.1412 139.085 14.2207 136.996 14.1241L136.95 15.1231ZM132.976 16.7367C133.987 15.6346 135.445 15.0415 136.946 15.1229L137 14.1243C135.201 14.0269 133.454 14.7372 132.239 16.0605L132.976 16.7367ZM132.107 15.031V16.3986H133.107V15.031H132.107ZM128.211 15.531H132.607V14.531H128.211V15.531ZM128.711 35.4118V15.031H127.711V35.4118H128.711ZM132.607 34.9118H128.211V35.9118H132.607V34.9118ZM132.107 28.2192V35.4118H133.107V28.2192H132.107ZM136.946 29.4964C135.444 29.5778 133.987 28.9842 132.976 27.8813L132.239 28.5571C133.453 29.8814 135.201 30.5924 137 30.4949L136.946 29.4964ZM141.714 27.2632C140.489 28.6074 138.774 29.4114 136.949 29.4962L136.996 30.4951C139.084 30.3981 141.049 29.4778 142.453 27.9368L141.714 27.2632ZM140.081 22.2977C140.026 20.1186 138.214 18.3966 136.028 18.4329L136.044 19.4328C137.688 19.4055 139.04 20.6987 139.081 22.3229L140.081 22.2977ZM138.995 25.2121C139.761 24.4321 140.156 23.3637 140.08 22.2753L139.082 22.3453C139.138 23.147 138.848 23.9352 138.282 24.5116L138.995 25.2121ZM136.073 26.3613C137.167 26.4097 138.23 25.9921 138.995 25.2121L138.282 24.5116C137.716 25.0882 136.928 25.3982 136.117 25.3623L136.073 26.3613ZM132.107 22.4305C132.125 24.6103 133.909 26.362 136.095 26.3618L136.095 25.3618C134.451 25.362 133.121 24.0467 133.107 22.422L132.107 22.4305ZM136.028 18.4329C133.842 18.4693 132.089 20.2507 132.107 22.4305L133.107 22.422C133.093 20.7974 134.401 19.4601 136.044 19.4328L136.028 18.4329Z" fill="black"/>
<path d="M157.544 25.2207C157.544 28.5693 154.614 29.9957 151.45 29.9957C148.833 30.2312 146.337 28.8585 145.148 26.531L148.957 24.3766C149.274 25.4602 150.311 26.176 151.444 26.0943C152.498 26.0943 153.026 25.7737 153.026 25.1928C153.026 23.5899 145.816 24.4354 145.816 19.3987C145.816 16.2237 148.513 14.6237 151.561 14.6237C153.894 14.5503 156.083 15.7436 157.275 17.7384L153.524 19.7472C153.187 18.9676 152.414 18.4633 151.561 18.4663C150.798 18.4663 150.329 18.7604 150.329 19.281C150.335 20.9413 157.544 19.834 157.544 25.2207Z" fill="#19191B" stroke="black"/>
<path d="M173.603 15.031V29.5898H169.207V28.2207C168.178 29.4462 166.62 30.1069 165.018 29.9972C162.057 29.9972 159.541 27.9016 159.541 23.9678V15.031H163.937V23.3281C163.863 24.0299 164.103 24.7287 164.594 25.2386C165.085 25.7485 165.777 26.0179 166.486 25.9751C168.098 25.9751 169.211 25.0442 169.211 22.9766V15.0354L173.603 15.031Z" fill="#19191B" stroke="black"/>
<path d="M198.812 20.6501V29.5883H194.416V21.0281C194.416 19.5722 193.713 18.6413 192.307 18.6413C190.841 18.6413 190.02 19.6604 190.02 21.3781V29.5883H185.625V21.0281C185.625 19.5722 184.922 18.6413 183.514 18.6413C182.048 18.6413 181.228 19.6604 181.228 21.3781V29.5883H176.832V15.0295H181.228V16.3678C182.154 15.1614 183.633 14.5041 185.155 14.6222C186.686 14.5478 188.143 15.277 188.994 16.5428C189.984 15.2195 191.589 14.4942 193.244 14.6222C196.608 14.6236 198.812 17.0104 198.812 20.6501Z" fill="#19191B" stroke="black"/>
<path d="M202.531 14.9413C204.333 14.9413 205.793 13.4902 205.793 11.7002C205.793 9.91011 204.333 8.45898 202.531 8.45898C200.729 8.45898 199.268 9.91011 199.268 11.7002C199.268 13.4902 200.729 14.9413 202.531 14.9413Z" fill="#19191B" stroke="black"/>
</g>
<defs>
<filter id="filter0_d_1_90" x="0.499939" y="0.5" width="209.793" height="48.2152" filterUnits="userSpaceOnUse" color-interpolation-filters="sRGB">
<feFlood flood-opacity="0" result="BackgroundImageFix"/>
<feColorMatrix in="SourceAlpha" type="matrix" values="0 0 0 0 0 0 0 0 0 0 0 0 0 0 0 0 0 0 127 0" result="hardAlpha"/>
<feOffset dy="4"/>
<feGaussianBlur stdDeviation="2"/>
<feComposite in2="hardAlpha" operator="out"/>
<feColorMatrix type="matrix" values="0 0 0 0 0 0 0 0 0 0 0 0 0 0 0 0 0 0 0.25 0"/>
<feBlend mode="normal" in2="BackgroundImageFix" result="effect1_dropShadow_1_90"/>
<feBlend mode="normal" in="SourceGraphic" in2="effect1_dropShadow_1_90" result="shape"/>
</filter>
<filter id="filter1_d_1_90" x="1.86078" y="1.88538" width="45.6027" height="45.3588" filterUnits="userSpaceOnUse" color-interpolation-filters="sRGB">
<feFlood flood-opacity="0" result="BackgroundImageFix"/>
<feColorMatrix in="SourceAlpha" type="matrix" values="0 0 0 0 0 0 0 0 0 0 0 0 0 0 0 0 0 0 127 0" result="hardAlpha"/>
<feOffset dy="4"/>
<feGaussianBlur stdDeviation="2"/>
<feComposite in2="hardAlpha" operator="out"/>
<feColorMatrix type="matrix" values="0 0 0 0 0 0 0 0 0 0 0 0 0 0 0 0 0 0 0.25 0"/>
<feBlend mode="normal" in2="BackgroundImageFix" result="effect1_dropShadow_1_90"/>
<feBlend mode="normal" in="SourceGraphic" in2="effect1_dropShadow_1_90" result="shape"/>
</filter>
</defs>
</svg>
